<?xml version="1.0" ?><!DOCTYPE svg  PUBLIC '-//W3C//DTD SVG 1.1//EN'  'http://www.w3.org/Graphics/SVG/1.1/DTD/svg11.dtd'><svg xmlns="http://www.w3.org/2000/svg" width="526.000" height="465.000" viewBox="377.000 128.000 526.000 465.000"><polygon points="664.3199999999999,193.8206191045715 641.28,188.7006191045715 613.12,160.54061910457153 629.76,140.06061910457151 647.6800000000001,144.54061910457153 656.0,149.66061910457154 666.88,168.22061910457148" stroke="#000" fill="#000" fill-rule="evenodd" stroke-linejoin="round"/><polygon points="792.3199999999999,415.5231224733878 769.28,410.4031224733878 741.12,382.24312247338776 757.76,361.76312247338774 775.6800000000001,366.24312247338776 784.0,371.36312247338776 794.88,389.92312247338776" stroke="#000" fill="#000" fill-rule="evenodd" stroke-linejoin="round"/><polygon points="536.3199999999999,415.5231224733878 513.28,410.4031224733878 485.12,382.2431224733878 501.76,361.76312247338785 519.6800000000001,366.2431224733878 528.0,371.3631224733878 538.88,389.9231224733878" stroke="#000" fill="#000" fill-rule="evenodd" stroke-linejoin="round"/><polygon points="728.3199999999999,304.6718707889796 705.28,299.55187078897967 677.12,271.39187078897965 693.76,250.91187078897963 711.6800000000001,255.39187078897965 720.0,260.51187078897965 730.88,279.07187078897965" stroke="#000" fill="#000" fill-rule="evenodd" stroke-linejoin="round"/><polygon points="856.32,526.374374157796 833.28,521.2543741577958 805.12,493.09437415779587 821.76,472.6143741577959 839.6800000000001,477.09437415779587 848.0,482.2143741577959 858.88,500.77437415779593" stroke="#000" fill="#000" fill-rule="evenodd" stroke-linejoin="round"/><polygon points="600.32,526.374374157796 577.28,521.254374157796 549.12,493.0943741577959 565.76,472.61437415779596 583.6800000000001,477.0943741577959 592.0,482.21437415779593 602.88,500.77437415779593" stroke="#000" fill="#000" fill-rule="evenodd" stroke-linejoin="round"/><polygon points="600.3199999999999,304.6718707889796 577.28,299.55187078897967 549.12,271.39187078897965 565.76,250.91187078897963 583.6800000000001,255.39187078897965 592.0,260.51187078897965 602.88,279.07187078897965" stroke="#000" fill="#000" fill-rule="evenodd" stroke-linejoin="round"/><polygon points="728.3199999999999,526.374374157796 705.28,521.254374157796 677.12,493.0943741577959 693.76,472.61437415779596 711.6800000000001,477.0943741577959 720.0,482.21437415779593 730.88,500.77437415779593" stroke="#000" fill="#000" fill-rule="evenodd" stroke-linejoin="round"/><polygon points="472.32000000000005,526.374374157796 449.28,521.254374157796 421.12,493.094374157796 437.76,472.61437415779596 455.68000000000006,477.094374157796 464.0,482.214374157796 474.88,500.77437415779593" stroke="#000" fill="#000" fill-rule="evenodd" stroke-linejoin="round"/><polygon points="696.3199999999999,249.24624494677556 673.28,244.1262449467756 645.12,215.9662449467756 661.76,195.48624494677557 679.6800000000001,199.9662449467756 688.0,205.0862449467756 698.88,223.6462449467756" stroke="#000" fill="#000" fill-rule="evenodd" stroke-linejoin="round"/><polygon points="824.3199999999999,470.94874831559184 801.28,465.82874831559184 773.12,437.66874831559187 789.76,417.18874831559185 807.6800000000001,421.66874831559187 816.0,426.7887483155919 826.88,445.3487483155918" stroke="#000" fill="#000" fill-rule="evenodd" stroke-linejoin="round"/><polygon points="568.3199999999999,470.94874831559184 545.28,465.8287483155919 517.12,437.66874831559187 533.76,417.18874831559185 551.6800000000001,421.66874831559187 560.0,426.7887483155919 570.88,445.3487483155919" stroke="#000" fill="#000" fill-rule="evenodd" stroke-linejoin="round"/><polygon points="760.3199999999999,360.09749663118373 737.28,354.9774966311837 709.12,326.8174966311837 725.76,306.33749663118374 743.6800000000001,310.8174966311837 752.0,315.9374966311837 762.88,334.4974966311837" stroke="#000" fill="#000" fill-rule="evenodd" stroke-linejoin="round"/><polygon points="888.32,581.8 865.28,576.68 837.12,548.52 853.76,528.04 871.6800000000001,532.52 880.0,537.64 890.88,556.1999999999999" stroke="#000" fill="#000" fill-rule="evenodd" stroke-linejoin="round"/><polygon points="632.32,581.8 609.28,576.6800000000001 581.12,548.52 597.76,528.04 615.6800000000001,532.52 624.0,537.64 634.88,556.2" stroke="#000" fill="#000" fill-rule="evenodd" stroke-linejoin="round"/><polygon points="632.3199999999999,360.09749663118373 609.28,354.9774966311837 581.12,326.8174966311837 597.76,306.33749663118374 615.6800000000001,310.8174966311837 624.0,315.9374966311837 634.88,334.4974966311837" stroke="#000" fill="#000" fill-rule="evenodd" stroke-linejoin="round"/><polygon points="760.32,581.8 737.28,576.6800000000001 709.12,548.52 725.76,528.04 743.6800000000001,532.52 752.0,537.64 762.88,556.1999999999999" stroke="#000" fill="#000" fill-rule="evenodd" stroke-linejoin="round"/><polygon points="504.32000000000005,581.8000000000001 481.28,576.6800000000001 453.12,548.52 469.76,528.04 487.68000000000006,532.52 496.0,537.64 506.88,556.2" stroke="#000" fill="#000" fill-rule="evenodd" stroke-linejoin="round"/><polygon points="632.3199999999999,249.24624494677556 609.28,244.1262449467756 581.12,215.9662449467756 597.76,195.48624494677557 615.68,199.9662449467756 624.0,205.0862449467756 634.88,223.6462449467756" stroke="#000" fill="#000" fill-rule="evenodd" stroke-linejoin="round"/><polygon points="760.3199999999999,470.94874831559184 737.28,465.82874831559184 709.12,437.66874831559187 725.76,417.18874831559185 743.6800000000001,421.66874831559187 752.0,426.7887483155919 762.88,445.3487483155918" stroke="#000" fill="#000" fill-rule="evenodd" stroke-linejoin="round"/><polygon points="504.32,470.94874831559184 481.28,465.8287483155919 453.12,437.66874831559187 469.76,417.18874831559185 487.68,421.66874831559187 496.0,426.7887483155919 506.88,445.3487483155919" stroke="#000" fill="#000" fill-rule="evenodd" stroke-linejoin="round"/><polygon points="696.3199999999999,360.09749663118373 673.28,354.9774966311837 645.12,326.8174966311837 661.76,306.33749663118374 679.6800000000001,310.8174966311837 688.0,315.9374966311837 698.88,334.4974966311837" stroke="#000" fill="#000" fill-rule="evenodd" stroke-linejoin="round"/><polygon points="824.32,581.8 801.28,576.68 773.12,548.52 789.76,528.04 807.6800000000001,532.52 816.0,537.64 826.88,556.1999999999999" stroke="#000" fill="#000" fill-rule="evenodd" stroke-linejoin="round"/><polygon points="568.32,581.8 545.28,576.6800000000001 517.12,548.52 533.76,528.04 551.6800000000001,532.52 560.0,537.64 570.88,556.2" stroke="#000" fill="#000" fill-rule="evenodd" stroke-linejoin="round"/><polygon points="568.3199999999999,360.09749663118373 545.28,354.9774966311837 517.12,326.8174966311837 533.76,306.33749663118374 551.6800000000001,310.8174966311837 560.0,315.9374966311837 570.88,334.4974966311837" stroke="#000" fill="#000" fill-rule="evenodd" stroke-linejoin="round"/><polygon points="696.32,581.8 673.28,576.6800000000001 645.12,548.52 661.76,528.04 679.6800000000001,532.52 688.0,537.64 698.88,556.2" stroke="#000" fill="#000" fill-rule="evenodd" stroke-linejoin="round"/><polygon points="440.32000000000005,581.8000000000001 417.28,576.6800000000001 389.12,548.52 405.76,528.04 423.68000000000006,532.52 432.0,537.64 442.88,556.2" stroke="#000" fill="#000" fill-rule="evenodd" stroke-linejoin="round"/></svg>