<?xml version="1.0" ?><!DOCTYPE svg  PUBLIC '-//W3C//DTD SVG 1.1//EN'  'http://www.w3.org/Graphics/SVG/1.1/DTD/svg11.dtd'><svg xmlns="http://www.w3.org/2000/svg" width="516.000" height="463.000" viewBox="382.000 129.000 516.000 463.000"><polygon points="688.64,248.04624494677557 642.56,237.80624494677556 586.24,181.48624494677557 619.52,140.5262449467756 655.36,149.48624494677557 672.0,159.72624494677558 693.76,196.84624494677558" stroke="#000" fill="#000" fill-rule="evenodd" stroke-linejoin="round"/><polygon points="816.64,469.7487483155918 770.56,459.50874831559184 714.24,403.18874831559185 747.52,362.2287483155919 783.36,371.18874831559185 800.0,381.42874831559186 821.76,418.54874831559187" stroke="#000" fill="#000" fill-rule="evenodd" stroke-linejoin="round"/><polygon points="560.64,469.74874831559185 514.56,459.5087483155919 458.24,403.18874831559185 491.52,362.22874831559193 527.36,371.18874831559185 544.0,381.42874831559186 565.76,418.54874831559187" stroke="#000" fill="#000" fill-rule="evenodd" stroke-linejoin="round"/><polygon points="752.64,358.8974966311837 706.56,348.65749663118373 650.24,292.33749663118374 683.52,251.3774966311837 719.36,260.33749663118374 736.0,270.57749663118375 757.76,307.6974966311837" stroke="#000" fill="#000" fill-rule="evenodd" stroke-linejoin="round"/><polygon points="880.64,580.5999999999999 834.5600000000001,570.36 778.24,514.04 811.52,473.08 847.36,482.03999999999996 864.0,492.28 885.76,529.4" stroke="#000" fill="#000" fill-rule="evenodd" stroke-linejoin="round"/><polygon points="624.64,580.6 578.5600000000001,570.36 522.24,514.0400000000001 555.52,473.08000000000004 591.36,482.04 608.0,492.28 629.76,529.4" stroke="#000" fill="#000" fill-rule="evenodd" stroke-linejoin="round"/><polygon points="624.64,358.8974966311837 578.56,348.65749663118373 522.24,292.33749663118374 555.52,251.3774966311837 591.36,260.33749663118374 608.0,270.57749663118375 629.76,307.6974966311837" stroke="#000" fill="#000" fill-rule="evenodd" stroke-linejoin="round"/><polygon points="752.64,580.6 706.5600000000001,570.36 650.24,514.04 683.52,473.08 719.36,482.03999999999996 736.0,492.28 757.76,529.4" stroke="#000" fill="#000" fill-rule="evenodd" stroke-linejoin="round"/><polygon points="496.64,580.6 450.56000000000006,570.36 394.24,514.0400000000001 427.52,473.08000000000004 463.36,482.04 480.0,492.28000000000003 501.76,529.4000000000001" stroke="#000" fill="#000" fill-rule="evenodd" stroke-linejoin="round"/></svg>