<?xml version="1.0" ?><!DOCTYPE svg  PUBLIC '-//W3C//DTD SVG 1.1//EN'  'http://www.w3.org/Graphics/SVG/1.1/DTD/svg11.dtd'><svg xmlns="http://www.w3.org/2000/svg" width="534.000" height="467.000" viewBox="373.000 127.000 534.000 467.000"><polygon points="646.0799999999999,152.65139972291843 640.3199999999999,151.37139972291845 633.28,144.3313997229185 637.4399999999999,139.2113997229185 641.9200000000001,140.3313997229185 644.0,141.61139972291846 646.72,146.25139972291845" stroke="#000" fill="#000" fill-rule="evenodd" stroke-linejoin="round"/><polygon points="774.0799999999999,374.3539030917347 768.3199999999999,373.0739030917347 761.28,366.0339030917347 765.44,360.9139030917347 769.9200000000001,362.0339030917347 772.0,363.3139030917347 774.72,367.9539030917347" stroke="#000" fill="#000" fill-rule="evenodd" stroke-linejoin="round"/><polygon points="518.0799999999999,374.35390309173476 512.3199999999999,373.0739030917348 505.28,366.03390309173477 509.44,360.91390309173477 513.9200000000001,362.03390309173477 516.0,363.3139030917348 518.72,367.9539030917348" stroke="#000" fill="#000" fill-rule="evenodd" stroke-linejoin="round"/><polygon points="710.0799999999999,263.5026514073266 704.3199999999999,262.22265140732657 697.28,255.1826514073266 701.44,250.0626514073266 705.9200000000001,251.1826514073266 708.0,252.46265140732658 710.72,257.10265140732656" stroke="#000" fill="#000" fill-rule="evenodd" stroke-linejoin="round"/><polygon points="838.08,485.2051547761429 832.32,483.92515477614285 825.28,476.8851547761428 829.44,471.7651547761428 833.9200000000001,472.8851547761428 836.0,474.16515477614286 838.72,478.80515477614284" stroke="#000" fill="#000" fill-rule="evenodd" stroke-linejoin="round"/><polygon points="582.0799999999999,485.2051547761429 576.3199999999999,483.9251547761429 569.28,476.8851547761429 573.44,471.7651547761429 577.9200000000001,472.8851547761429 580.0,474.1651547761429 582.72,478.8051547761429" stroke="#000" fill="#000" fill-rule="evenodd" stroke-linejoin="round"/><polygon points="582.0799999999999,263.5026514073266 576.3199999999999,262.22265140732657 569.28,255.1826514073266 573.44,250.0626514073266 577.9200000000001,251.1826514073266 580.0,252.46265140732658 582.72,257.10265140732656" stroke="#000" fill="#000" fill-rule="evenodd" stroke-linejoin="round"/><polygon points="710.0799999999999,485.2051547761429 704.3199999999999,483.92515477614285 697.28,476.8851547761429 701.44,471.7651547761429 705.9200000000001,472.8851547761429 708.0,474.16515477614286 710.72,478.80515477614284" stroke="#000" fill="#000" fill-rule="evenodd" stroke-linejoin="round"/><polygon points="454.08000000000004,485.2051547761429 448.32000000000005,483.9251547761429 441.28,476.88515477614294 445.44,471.76515477614294 449.92,472.88515477614294 452.0,474.1651547761429 454.72,478.8051547761429" stroke="#000" fill="#000" fill-rule="evenodd" stroke-linejoin="round"/><polygon points="678.0799999999999,208.07702556512254 672.3199999999999,206.7970255651225 665.28,199.7570255651225 669.44,194.63702556512254 673.9200000000001,195.7570255651225 676.0,197.03702556512252 678.72,201.67702556512256" stroke="#000" fill="#000" fill-rule="evenodd" stroke-linejoin="round"/><polygon points="806.0799999999999,429.7795289339388 800.3199999999999,428.4995289339388 793.28,421.45952893393877 797.44,416.3395289339388 801.9200000000001,417.45952893393877 804.0,418.7395289339388 806.72,423.3795289339388" stroke="#000" fill="#000" fill-rule="evenodd" stroke-linejoin="round"/><polygon points="550.0799999999999,429.7795289339388 544.3199999999999,428.4995289339388 537.28,421.4595289339388 541.44,416.3395289339388 545.9200000000001,417.4595289339388 548.0,418.7395289339388 550.72,423.37952893393884" stroke="#000" fill="#000" fill-rule="evenodd" stroke-linejoin="round"/><polygon points="742.0799999999999,318.92827724953065 736.3199999999999,317.6482772495307 729.28,310.60827724953066 733.44,305.48827724953065 737.9200000000001,306.60827724953066 740.0,307.8882772495307 742.72,312.5282772495307" stroke="#000" fill="#000" fill-rule="evenodd" stroke-linejoin="round"/><polygon points="870.08,540.6307806183469 864.32,539.3507806183469 857.28,532.3107806183469 861.44,527.1907806183469 865.9200000000001,528.3107806183469 868.0,529.5907806183469 870.72,534.2307806183469" stroke="#000" fill="#000" fill-rule="evenodd" stroke-linejoin="round"/><polygon points="614.08,540.630780618347 608.32,539.350780618347 601.28,532.3107806183469 605.44,527.1907806183469 609.9200000000001,528.3107806183469 612.0,529.5907806183469 614.72,534.2307806183469" stroke="#000" fill="#000" fill-rule="evenodd" stroke-linejoin="round"/><polygon points="614.0799999999999,318.92827724953065 608.3199999999999,317.6482772495307 601.28,310.60827724953066 605.44,305.48827724953065 609.9200000000001,306.60827724953066 612.0,307.8882772495307 614.72,312.5282772495307" stroke="#000" fill="#000" fill-rule="evenodd" stroke-linejoin="round"/><polygon points="742.08,540.630780618347 736.32,539.350780618347 729.28,532.3107806183469 733.44,527.1907806183469 737.9200000000001,528.3107806183469 740.0,529.5907806183469 742.72,534.2307806183469" stroke="#000" fill="#000" fill-rule="evenodd" stroke-linejoin="round"/><polygon points="486.08000000000004,540.630780618347 480.32000000000005,539.350780618347 473.28,532.3107806183469 477.44000000000005,527.1907806183469 481.9200000000001,528.3107806183469 484.0,529.590780618347 486.72,534.230780618347" stroke="#000" fill="#000" fill-rule="evenodd" stroke-linejoin="round"/><polygon points="614.0799999999999,208.07702556512254 608.3199999999999,206.7970255651225 601.28,199.7570255651225 605.4399999999999,194.63702556512254 609.92,195.7570255651225 612.0,197.03702556512252 614.72,201.67702556512256" stroke="#000" fill="#000" fill-rule="evenodd" stroke-linejoin="round"/><polygon points="742.0799999999999,429.7795289339388 736.3199999999999,428.4995289339388 729.28,421.45952893393877 733.44,416.3395289339388 737.9200000000001,417.45952893393877 740.0,418.7395289339388 742.72,423.3795289339388" stroke="#000" fill="#000" fill-rule="evenodd" stroke-linejoin="round"/><polygon points="486.08,429.7795289339388 480.32,428.4995289339388 473.28,421.4595289339388 477.44,416.3395289339388 481.92,417.4595289339388 484.0,418.7395289339388 486.72,423.37952893393884" stroke="#000" fill="#000" fill-rule="evenodd" stroke-linejoin="round"/><polygon points="678.0799999999999,318.92827724953065 672.3199999999999,317.6482772495307 665.28,310.60827724953066 669.44,305.48827724953065 673.9200000000001,306.60827724953066 676.0,307.8882772495307 678.72,312.5282772495307" stroke="#000" fill="#000" fill-rule="evenodd" stroke-linejoin="round"/><polygon points="806.08,540.6307806183469 800.32,539.3507806183469 793.28,532.3107806183469 797.44,527.1907806183469 801.9200000000001,528.3107806183469 804.0,529.5907806183469 806.72,534.2307806183469" stroke="#000" fill="#000" fill-rule="evenodd" stroke-linejoin="round"/><polygon points="550.08,540.630780618347 544.32,539.350780618347 537.28,532.3107806183469 541.44,527.1907806183469 545.9200000000001,528.3107806183469 548.0,529.5907806183469 550.72,534.2307806183469" stroke="#000" fill="#000" fill-rule="evenodd" stroke-linejoin="round"/><polygon points="550.0799999999999,318.92827724953065 544.3199999999999,317.6482772495307 537.28,310.60827724953066 541.44,305.48827724953065 545.9200000000001,306.60827724953066 548.0,307.8882772495307 550.72,312.5282772495307" stroke="#000" fill="#000" fill-rule="evenodd" stroke-linejoin="round"/><polygon points="678.0799999999999,540.630780618347 672.3199999999999,539.350780618347 665.28,532.3107806183469 669.44,527.1907806183469 673.9200000000001,528.3107806183469 676.0,529.5907806183469 678.72,534.2307806183469" stroke="#000" fill="#000" fill-rule="evenodd" stroke-linejoin="round"/><polygon points="422.08000000000004,540.630780618347 416.32000000000005,539.350780618347 409.28,532.3107806183469 413.44000000000005,527.1907806183469 417.9200000000001,528.3107806183469 420.0,529.590780618347 422.72,534.230780618347" stroke="#000" fill="#000" fill-rule="evenodd" stroke-linejoin="round"/><polygon points="662.0799999999999,180.36421264402048 656.3199999999999,179.0842126440205 649.28,172.0442126440205 653.44,166.92421264402049 657.9200000000001,168.0442126440205 660.0,169.32421264402046 662.72,173.9642126440205" stroke="#000" fill="#000" fill-rule="evenodd" stroke-linejoin="round"/><polygon points="790.0799999999999,402.06671601283676 784.3199999999999,400.7867160128368 777.28,393.74671601283677 781.44,388.6267160128367 785.9200000000001,389.7467160128367 788.0,391.02671601283674 790.72,395.6667160128368" stroke="#000" fill="#000" fill-rule="evenodd" stroke-linejoin="round"/><polygon points="534.0799999999999,402.06671601283676 528.3199999999999,400.7867160128368 521.28,393.74671601283677 525.44,388.62671601283677 529.9200000000001,389.74671601283677 532.0,391.0267160128368 534.72,395.6667160128368" stroke="#000" fill="#000" fill-rule="evenodd" stroke-linejoin="round"/><polygon points="726.0799999999999,291.21546432842865 720.3199999999999,289.9354643284286 713.28,282.8954643284286 717.44,277.7754643284286 721.9200000000001,278.8954643284286 724.0,280.17546432842863 726.72,284.8154643284286" stroke="#000" fill="#000" fill-rule="evenodd" stroke-linejoin="round"/><polygon points="854.08,512.9179676972449 848.32,511.6379676972449 841.28,504.5979676972449 845.44,499.4779676972449 849.9200000000001,500.5979676972449 852.0,501.8779676972449 854.72,506.5179676972449" stroke="#000" fill="#000" fill-rule="evenodd" stroke-linejoin="round"/><polygon points="598.08,512.9179676972449 592.32,511.6379676972449 585.28,504.59796769724494 589.44,499.47796769724494 593.9200000000001,500.59796769724494 596.0,501.8779676972449 598.72,506.5179676972449" stroke="#000" fill="#000" fill-rule="evenodd" stroke-linejoin="round"/><polygon points="598.0799999999999,291.21546432842865 592.3199999999999,289.9354643284286 585.28,282.8954643284286 589.44,277.7754643284286 593.9200000000001,278.8954643284286 596.0,280.17546432842863 598.72,284.8154643284286" stroke="#000" fill="#000" fill-rule="evenodd" stroke-linejoin="round"/><polygon points="726.0799999999999,512.9179676972449 720.3199999999999,511.6379676972449 713.28,504.59796769724494 717.44,499.47796769724494 721.9200000000001,500.59796769724494 724.0,501.8779676972449 726.72,506.5179676972449" stroke="#000" fill="#000" fill-rule="evenodd" stroke-linejoin="round"/><polygon points="470.08000000000004,512.9179676972449 464.32000000000005,511.6379676972449 457.28,504.59796769724494 461.44000000000005,499.47796769724494 465.9200000000001,500.59796769724494 468.0,501.8779676972449 470.72,506.5179676972449" stroke="#000" fill="#000" fill-rule="evenodd" stroke-linejoin="round"/><polygon points="694.0799999999999,235.78983848622454 688.3199999999999,234.50983848622457 681.28,227.46983848622455 685.44,222.3498384862246 689.9200000000001,223.46983848622455 692.0,224.74983848622458 694.72,229.38983848622456" stroke="#000" fill="#000" fill-rule="evenodd" stroke-linejoin="round"/><polygon points="822.0799999999999,457.4923418550408 816.3199999999999,456.2123418550408 809.28,449.1723418550408 813.44,444.0523418550408 817.9200000000001,445.1723418550408 820.0,446.4523418550408 822.72,451.0923418550408" stroke="#000" fill="#000" fill-rule="evenodd" stroke-linejoin="round"/><polygon points="566.0799999999999,457.4923418550409 560.3199999999999,456.21234185504085 553.28,449.1723418550408 557.44,444.0523418550409 561.9200000000001,445.1723418550408 564.0,446.45234185504086 566.72,451.09234185504084" stroke="#000" fill="#000" fill-rule="evenodd" stroke-linejoin="round"/><polygon points="758.08,346.6410901706327 752.3199999999999,345.3610901706327 745.28,338.3210901706327 749.44,333.2010901706327 753.92,334.3210901706327 756.0,335.6010901706327 758.72,340.2410901706327" stroke="#000" fill="#000" fill-rule="evenodd" stroke-linejoin="round"/><polygon points="886.08,568.343593539449 880.32,567.0635935394489 873.28,560.0235935394489 877.44,554.9035935394489 881.9200000000001,556.0235935394489 884.0,557.3035935394489 886.72,561.943593539449" stroke="#000" fill="#000" fill-rule="evenodd" stroke-linejoin="round"/><polygon points="630.08,568.343593539449 624.32,567.063593539449 617.28,560.0235935394489 621.44,554.903593539449 625.9200000000001,556.0235935394489 628.0,557.3035935394489 630.72,561.943593539449" stroke="#000" fill="#000" fill-rule="evenodd" stroke-linejoin="round"/><polygon points="630.08,346.6410901706327 624.3199999999999,345.3610901706327 617.28,338.3210901706327 621.44,333.2010901706327 625.92,334.3210901706327 628.0,335.6010901706327 630.72,340.2410901706327" stroke="#000" fill="#000" fill-rule="evenodd" stroke-linejoin="round"/><polygon points="758.08,568.343593539449 752.32,567.063593539449 745.28,560.0235935394489 749.44,554.903593539449 753.9200000000001,556.0235935394489 756.0,557.3035935394489 758.72,561.943593539449" stroke="#000" fill="#000" fill-rule="evenodd" stroke-linejoin="round"/><polygon points="502.08000000000004,568.343593539449 496.32000000000005,567.063593539449 489.28,560.023593539449 493.44000000000005,554.903593539449 497.91999999999996,556.023593539449 500.0,557.303593539449 502.72,561.943593539449" stroke="#000" fill="#000" fill-rule="evenodd" stroke-linejoin="round"/><polygon points="630.0799999999999,235.78983848622454 624.3199999999999,234.50983848622457 617.28,227.46983848622455 621.4399999999999,222.3498384862246 625.92,223.46983848622455 628.0,224.74983848622458 630.72,229.38983848622456" stroke="#000" fill="#000" fill-rule="evenodd" stroke-linejoin="round"/><polygon points="758.0799999999999,457.4923418550408 752.3199999999999,456.21234185504085 745.28,449.1723418550408 749.44,444.0523418550408 753.9200000000001,445.1723418550408 756.0,446.45234185504086 758.72,451.09234185504084" stroke="#000" fill="#000" fill-rule="evenodd" stroke-linejoin="round"/><polygon points="502.08,457.4923418550409 496.32,456.21234185504085 489.28,449.1723418550408 493.44,444.0523418550409 497.92,445.1723418550408 500.0,446.45234185504086 502.72,451.09234185504084" stroke="#000" fill="#000" fill-rule="evenodd" stroke-linejoin="round"/><polygon points="694.0799999999999,346.6410901706327 688.3199999999999,345.3610901706327 681.28,338.3210901706327 685.44,333.2010901706327 689.9200000000001,334.3210901706327 692.0,335.6010901706327 694.72,340.2410901706327" stroke="#000" fill="#000" fill-rule="evenodd" stroke-linejoin="round"/><polygon points="822.08,568.343593539449 816.32,567.0635935394489 809.28,560.0235935394489 813.44,554.9035935394489 817.9200000000001,556.0235935394489 820.0,557.3035935394489 822.72,561.943593539449" stroke="#000" fill="#000" fill-rule="evenodd" stroke-linejoin="round"/><polygon points="566.08,568.343593539449 560.32,567.063593539449 553.28,560.0235935394489 557.44,554.903593539449 561.9200000000001,556.0235935394489 564.0,557.3035935394489 566.72,561.943593539449" stroke="#000" fill="#000" fill-rule="evenodd" stroke-linejoin="round"/><polygon points="566.0799999999999,346.6410901706327 560.3199999999999,345.3610901706327 553.28,338.3210901706327 557.44,333.2010901706327 561.9200000000001,334.3210901706327 564.0,335.6010901706327 566.72,340.2410901706327" stroke="#000" fill="#000" fill-rule="evenodd" stroke-linejoin="round"/><polygon points="694.08,568.343593539449 688.32,567.063593539449 681.28,560.0235935394489 685.44,554.903593539449 689.9200000000001,556.0235935394489 692.0,557.3035935394489 694.72,561.943593539449" stroke="#000" fill="#000" fill-rule="evenodd" stroke-linejoin="round"/><polygon points="438.08000000000004,568.343593539449 432.32000000000005,567.063593539449 425.28,560.023593539449 429.44000000000005,554.903593539449 433.9200000000001,556.023593539449 436.0,557.303593539449 438.72,561.943593539449" stroke="#000" fill="#000" fill-rule="evenodd" stroke-linejoin="round"/><polygon points="630.0799999999999,180.36421264402048 624.3199999999999,179.0842126440205 617.28,172.0442126440205 621.4399999999999,166.92421264402049 625.92,168.0442126440205 628.0,169.32421264402046 630.72,173.9642126440205" stroke="#000" fill="#000" fill-rule="evenodd" stroke-linejoin="round"/><polygon points="758.0799999999999,402.06671601283676 752.3199999999999,400.7867160128368 745.28,393.74671601283677 749.44,388.62671601283677 753.9200000000001,389.74671601283677 756.0,391.02671601283674 758.72,395.6667160128368" stroke="#000" fill="#000" fill-rule="evenodd" stroke-linejoin="round"/><polygon points="502.08,402.06671601283676 496.32,400.7867160128368 489.28,393.7467160128368 493.44,388.6267160128368 497.92,389.7467160128368 500.0,391.0267160128368 502.72,395.6667160128368" stroke="#000" fill="#000" fill-rule="evenodd" stroke-linejoin="round"/><polygon points="694.0799999999999,291.21546432842865 688.3199999999999,289.9354643284286 681.28,282.8954643284286 685.44,277.7754643284286 689.9200000000001,278.8954643284286 692.0,280.17546432842863 694.72,284.8154643284286" stroke="#000" fill="#000" fill-rule="evenodd" stroke-linejoin="round"/><polygon points="822.08,512.9179676972449 816.32,511.6379676972449 809.28,504.5979676972449 813.44,499.4779676972449 817.9200000000001,500.5979676972449 820.0,501.8779676972449 822.72,506.5179676972449" stroke="#000" fill="#000" fill-rule="evenodd" stroke-linejoin="round"/><polygon points="566.0799999999999,512.9179676972449 560.3199999999999,511.6379676972449 553.28,504.59796769724494 557.44,499.47796769724494 561.9200000000001,500.59796769724494 564.0,501.8779676972449 566.72,506.5179676972449" stroke="#000" fill="#000" fill-rule="evenodd" stroke-linejoin="round"/><polygon points="566.0799999999999,291.21546432842865 560.3199999999999,289.9354643284286 553.28,282.8954643284286 557.44,277.7754643284286 561.9200000000001,278.8954643284286 564.0,280.17546432842863 566.72,284.8154643284286" stroke="#000" fill="#000" fill-rule="evenodd" stroke-linejoin="round"/><polygon points="694.0799999999999,512.9179676972449 688.3199999999999,511.6379676972449 681.28,504.59796769724494 685.44,499.47796769724494 689.9200000000001,500.59796769724494 692.0,501.8779676972449 694.72,506.5179676972449" stroke="#000" fill="#000" fill-rule="evenodd" stroke-linejoin="round"/><polygon points="438.08000000000004,512.9179676972449 432.32000000000005,511.6379676972449 425.28,504.59796769724494 429.44000000000005,499.47796769724494 433.9200000000001,500.59796769724494 436.0,501.8779676972449 438.72,506.5179676972449" stroke="#000" fill="#000" fill-rule="evenodd" stroke-linejoin="round"/><polygon points="662.0799999999999,235.78983848622454 656.3199999999999,234.50983848622457 649.28,227.46983848622455 653.44,222.3498384862246 657.9200000000001,223.46983848622455 660.0,224.74983848622458 662.72,229.38983848622456" stroke="#000" fill="#000" fill-rule="evenodd" stroke-linejoin="round"/><polygon points="790.0799999999999,457.4923418550408 784.3199999999999,456.21234185504085 777.28,449.1723418550408 781.44,444.0523418550408 785.9200000000001,445.1723418550408 788.0,446.45234185504086 790.72,451.09234185504084" stroke="#000" fill="#000" fill-rule="evenodd" stroke-linejoin="round"/><polygon points="534.0799999999999,457.4923418550409 528.3199999999999,456.21234185504085 521.28,449.1723418550408 525.44,444.0523418550409 529.9200000000001,445.1723418550408 532.0,446.45234185504086 534.72,451.09234185504084" stroke="#000" fill="#000" fill-rule="evenodd" stroke-linejoin="round"/><polygon points="726.0799999999999,346.6410901706327 720.3199999999999,345.3610901706327 713.28,338.3210901706327 717.44,333.2010901706327 721.9200000000001,334.3210901706327 724.0,335.6010901706327 726.72,340.2410901706327" stroke="#000" fill="#000" fill-rule="evenodd" stroke-linejoin="round"/><polygon points="854.08,568.343593539449 848.32,567.0635935394489 841.28,560.0235935394489 845.44,554.9035935394489 849.9200000000001,556.0235935394489 852.0,557.3035935394489 854.72,561.943593539449" stroke="#000" fill="#000" fill-rule="evenodd" stroke-linejoin="round"/><polygon points="598.08,568.343593539449 592.32,567.063593539449 585.28,560.0235935394489 589.44,554.903593539449 593.9200000000001,556.0235935394489 596.0,557.3035935394489 598.72,561.943593539449" stroke="#000" fill="#000" fill-rule="evenodd" stroke-linejoin="round"/><polygon points="598.0799999999999,346.6410901706327 592.3199999999999,345.3610901706327 585.28,338.3210901706327 589.44,333.2010901706327 593.9200000000001,334.3210901706327 596.0,335.6010901706327 598.72,340.2410901706327" stroke="#000" fill="#000" fill-rule="evenodd" stroke-linejoin="round"/><polygon points="726.08,568.343593539449 720.32,567.063593539449 713.28,560.0235935394489 717.44,554.903593539449 721.9200000000001,556.0235935394489 724.0,557.3035935394489 726.72,561.943593539449" stroke="#000" fill="#000" fill-rule="evenodd" stroke-linejoin="round"/><polygon points="470.08000000000004,568.343593539449 464.32000000000005,567.063593539449 457.28,560.023593539449 461.44000000000005,554.903593539449 465.9200000000001,556.023593539449 468.0,557.303593539449 470.72,561.943593539449" stroke="#000" fill="#000" fill-rule="evenodd" stroke-linejoin="round"/><polygon points="598.0799999999999,235.78983848622454 592.3199999999999,234.50983848622457 585.28,227.46983848622455 589.44,222.3498384862246 593.9200000000001,223.46983848622455 596.0,224.74983848622458 598.72,229.38983848622456" stroke="#000" fill="#000" fill-rule="evenodd" stroke-linejoin="round"/><polygon points="726.0799999999999,457.4923418550408 720.3199999999999,456.21234185504085 713.28,449.1723418550408 717.44,444.0523418550408 721.9200000000001,445.1723418550408 724.0,446.45234185504086 726.72,451.09234185504084" stroke="#000" fill="#000" fill-rule="evenodd" stroke-linejoin="round"/><polygon points="470.08,457.4923418550409 464.32,456.2123418550409 457.28,449.1723418550408 461.44,444.0523418550409 465.92,445.1723418550408 468.0,446.45234185504086 470.72,451.09234185504084" stroke="#000" fill="#000" fill-rule="evenodd" stroke-linejoin="round"/><polygon points="662.0799999999999,346.6410901706327 656.3199999999999,345.3610901706327 649.28,338.3210901706327 653.44,333.2010901706327 657.9200000000001,334.3210901706327 660.0,335.6010901706327 662.72,340.2410901706327" stroke="#000" fill="#000" fill-rule="evenodd" stroke-linejoin="round"/><polygon points="790.08,568.343593539449 784.32,567.0635935394489 777.28,560.0235935394489 781.44,554.9035935394489 785.9200000000001,556.0235935394489 788.0,557.3035935394489 790.72,561.943593539449" stroke="#000" fill="#000" fill-rule="evenodd" stroke-linejoin="round"/><polygon points="534.08,568.343593539449 528.32,567.063593539449 521.28,560.023593539449 525.44,554.903593539449 529.9200000000001,556.0235935394489 532.0,557.3035935394489 534.72,561.943593539449" stroke="#000" fill="#000" fill-rule="evenodd" stroke-linejoin="round"/><polygon points="534.0799999999999,346.6410901706327 528.3199999999999,345.36109017063274 521.28,338.3210901706327 525.44,333.2010901706327 529.9200000000001,334.3210901706327 532.0,335.6010901706327 534.72,340.24109017063273" stroke="#000" fill="#000" fill-rule="evenodd" stroke-linejoin="round"/><polygon points="662.0799999999999,568.343593539449 656.3199999999999,567.063593539449 649.28,560.0235935394489 653.44,554.903593539449 657.9200000000001,556.0235935394489 660.0,557.3035935394489 662.72,561.943593539449" stroke="#000" fill="#000" fill-rule="evenodd" stroke-linejoin="round"/><polygon points="406.08000000000004,568.343593539449 400.32000000000005,567.063593539449 393.28,560.023593539449 397.44000000000005,554.903593539449 401.9200000000001,556.023593539449 404.0,557.303593539449 406.72,561.943593539449" stroke="#000" fill="#000" fill-rule="evenodd" stroke-linejoin="round"/><polygon points="654.0799999999999,166.50780618346948 648.3199999999999,165.2278061834695 641.28,158.1878061834695 645.44,153.0678061834695 649.9200000000001,154.1878061834695 652.0,155.46780618346946 654.72,160.1078061834695" stroke="#000" fill="#000" fill-rule="evenodd" stroke-linejoin="round"/><polygon points="782.0799999999999,388.2103095522857 776.3199999999999,386.93030955228573 769.28,379.89030955228577 773.44,374.77030955228577 777.9200000000001,375.89030955228577 780.0,377.17030955228574 782.72,381.81030955228573" stroke="#000" fill="#000" fill-rule="evenodd" stroke-linejoin="round"/><polygon points="526.0799999999999,388.21030955228576 520.3199999999999,386.9303095522858 513.28,379.89030955228577 517.44,374.77030955228577 521.9200000000001,375.89030955228577 524.0,377.17030955228574 526.72,381.8103095522858" stroke="#000" fill="#000" fill-rule="evenodd" stroke-linejoin="round"/><polygon points="718.0799999999999,277.3590578678776 712.3199999999999,276.0790578678776 705.28,269.0390578678776 709.44,263.9190578678776 713.9200000000001,265.0390578678776 716.0,266.31905786787763 718.72,270.9590578678776" stroke="#000" fill="#000" fill-rule="evenodd" stroke-linejoin="round"/><polygon points="846.08,499.0615612366938 840.32,497.78156123669385 833.28,490.7415612366939 837.44,485.6215612366939 841.9200000000001,486.7415612366939 844.0,488.02156123669386 846.72,492.66156123669384" stroke="#000" fill="#000" fill-rule="evenodd" stroke-linejoin="round"/><polygon points="590.0799999999999,499.0615612366939 584.3199999999999,497.7815612366939 577.28,490.7415612366939 581.44,485.6215612366939 585.9200000000001,486.7415612366939 588.0,488.0215612366939 590.72,492.6615612366939" stroke="#000" fill="#000" fill-rule="evenodd" stroke-linejoin="round"/><polygon points="590.0799999999999,277.3590578678776 584.3199999999999,276.0790578678776 577.28,269.0390578678776 581.44,263.9190578678776 585.9200000000001,265.0390578678776 588.0,266.31905786787763 590.72,270.9590578678776" stroke="#000" fill="#000" fill-rule="evenodd" stroke-linejoin="round"/><polygon points="718.0799999999999,499.0615612366939 712.3199999999999,497.7815612366939 705.28,490.7415612366939 709.44,485.6215612366939 713.9200000000001,486.7415612366939 716.0,488.02156123669386 718.72,492.6615612366939" stroke="#000" fill="#000" fill-rule="evenodd" stroke-linejoin="round"/><polygon points="462.08000000000004,499.06156123669393 456.32000000000005,497.78156123669396 449.28,490.7415612366939 453.44000000000005,485.62156123669394 457.9200000000001,486.74156123669394 460.0,488.0215612366939 462.72,492.66156123669396" stroke="#000" fill="#000" fill-rule="evenodd" stroke-linejoin="round"/><polygon points="686.0799999999999,221.93343202567354 680.3199999999999,220.6534320256735 673.28,213.61343202567355 677.44,208.49343202567354 681.9200000000001,209.61343202567355 684.0,210.89343202567352 686.72,215.5334320256735" stroke="#000" fill="#000" fill-rule="evenodd" stroke-linejoin="round"/><polygon points="814.0799999999999,443.6359353944898 808.3199999999999,442.3559353944898 801.28,435.3159353944898 805.44,430.1959353944898 809.9200000000001,431.3159353944898 812.0,432.5959353944898 814.72,437.2359353944898" stroke="#000" fill="#000" fill-rule="evenodd" stroke-linejoin="round"/><polygon points="558.0799999999999,443.6359353944898 552.3199999999999,442.35593539448985 545.28,435.3159353944898 549.44,430.1959353944898 553.9200000000001,431.3159353944898 556.0,432.59593539448986 558.72,437.23593539448984" stroke="#000" fill="#000" fill-rule="evenodd" stroke-linejoin="round"/><polygon points="750.0799999999999,332.78468371008165 744.3199999999999,331.5046837100817 737.28,324.46468371008166 741.44,319.34468371008165 745.9200000000001,320.46468371008166 748.0,321.7446837100817 750.72,326.3846837100817" stroke="#000" fill="#000" fill-rule="evenodd" stroke-linejoin="round"/><polygon points="878.08,554.4871870788979 872.32,553.207187078898 865.28,546.167187078898 869.44,541.0471870788979 873.9200000000001,542.167187078898 876.0,543.447187078898 878.72,548.087187078898" stroke="#000" fill="#000" fill-rule="evenodd" stroke-linejoin="round"/><polygon points="622.08,554.4871870788979 616.32,553.207187078898 609.28,546.167187078898 613.44,541.047187078898 617.9200000000001,542.167187078898 620.0,543.447187078898 622.72,548.087187078898" stroke="#000" fill="#000" fill-rule="evenodd" stroke-linejoin="round"/><polygon points="622.0799999999999,332.7846837100817 616.3199999999999,331.5046837100817 609.28,324.46468371008166 613.44,319.34468371008165 617.9200000000001,320.46468371008166 620.0,321.7446837100817 622.72,326.3846837100817" stroke="#000" fill="#000" fill-rule="evenodd" stroke-linejoin="round"/><polygon points="750.08,554.4871870788979 744.32,553.207187078898 737.28,546.167187078898 741.44,541.047187078898 745.9200000000001,542.167187078898 748.0,543.447187078898 750.72,548.087187078898" stroke="#000" fill="#000" fill-rule="evenodd" stroke-linejoin="round"/><polygon points="494.08000000000004,554.4871870788979 488.32000000000005,553.207187078898 481.28,546.167187078898 485.44000000000005,541.047187078898 489.9200000000001,542.167187078898 492.0,543.447187078898 494.72,548.087187078898" stroke="#000" fill="#000" fill-rule="evenodd" stroke-linejoin="round"/><polygon points="622.0799999999999,221.93343202567354 616.3199999999999,220.6534320256735 609.28,213.61343202567355 613.4399999999999,208.49343202567354 617.92,209.61343202567355 620.0,210.89343202567352 622.72,215.5334320256735" stroke="#000" fill="#000" fill-rule="evenodd" stroke-linejoin="round"/><polygon points="750.0799999999999,443.6359353944898 744.3199999999999,442.3559353944898 737.28,435.3159353944898 741.44,430.1959353944898 745.9200000000001,431.3159353944898 748.0,432.5959353944898 750.72,437.2359353944898" stroke="#000" fill="#000" fill-rule="evenodd" stroke-linejoin="round"/><polygon points="494.08,443.6359353944898 488.32,442.35593539448985 481.28,435.3159353944898 485.44,430.1959353944898 489.92,431.3159353944898 492.0,432.59593539448986 494.72,437.23593539448984" stroke="#000" fill="#000" fill-rule="evenodd" stroke-linejoin="round"/><polygon points="686.0799999999999,332.7846837100817 680.3199999999999,331.5046837100817 673.28,324.46468371008166 677.44,319.34468371008165 681.9200000000001,320.46468371008166 684.0,321.7446837100817 686.72,326.3846837100817" stroke="#000" fill="#000" fill-rule="evenodd" stroke-linejoin="round"/><polygon points="814.08,554.4871870788979 808.32,553.207187078898 801.28,546.167187078898 805.44,541.0471870788979 809.9200000000001,542.167187078898 812.0,543.447187078898 814.72,548.087187078898" stroke="#000" fill="#000" fill-rule="evenodd" stroke-linejoin="round"/><polygon points="558.08,554.4871870788979 552.32,553.207187078898 545.28,546.167187078898 549.44,541.047187078898 553.9200000000001,542.167187078898 556.0,543.447187078898 558.72,548.087187078898" stroke="#000" fill="#000" fill-rule="evenodd" stroke-linejoin="round"/><polygon points="558.0799999999999,332.7846837100817 552.3199999999999,331.5046837100817 545.28,324.46468371008166 549.44,319.34468371008165 553.9200000000001,320.46468371008166 556.0,321.7446837100817 558.72,326.3846837100817" stroke="#000" fill="#000" fill-rule="evenodd" stroke-linejoin="round"/><polygon points="686.0799999999999,554.4871870788979 680.3199999999999,553.207187078898 673.28,546.167187078898 677.44,541.047187078898 681.9200000000001,542.167187078898 684.0,543.447187078898 686.72,548.087187078898" stroke="#000" fill="#000" fill-rule="evenodd" stroke-linejoin="round"/><polygon points="430.08000000000004,554.4871870788979 424.32000000000005,553.207187078898 417.28,546.167187078898 421.44000000000005,541.047187078898 425.9200000000001,542.167187078898 428.0,543.447187078898 430.72,548.087187078898" stroke="#000" fill="#000" fill-rule="evenodd" stroke-linejoin="round"/><polygon points="670.0799999999999,194.22061910457148 664.3199999999999,192.9406191045715 657.28,185.9006191045715 661.44,180.78061910457154 665.9200000000001,181.9006191045715 668.0,183.18061910457152 670.72,187.8206191045715" stroke="#000" fill="#000" fill-rule="evenodd" stroke-linejoin="round"/><polygon points="798.0799999999999,415.92312247338776 792.3199999999999,414.6431224733878 785.28,407.60312247338777 789.44,402.48312247338777 793.9200000000001,403.60312247338777 796.0,404.8831224733878 798.72,409.5231224733878" stroke="#000" fill="#000" fill-rule="evenodd" stroke-linejoin="round"/><polygon points="542.0799999999999,415.9231224733878 536.3199999999999,414.6431224733878 529.28,407.60312247338777 533.44,402.4831224733878 537.9200000000001,403.60312247338777 540.0,404.8831224733878 542.72,409.5231224733878" stroke="#000" fill="#000" fill-rule="evenodd" stroke-linejoin="round"/><polygon points="734.0799999999999,305.07187078897965 728.3199999999999,303.7918707889796 721.28,296.75187078897966 725.44,291.63187078897965 729.9200000000001,292.75187078897966 732.0,294.03187078897963 734.72,298.6718707889796" stroke="#000" fill="#000" fill-rule="evenodd" stroke-linejoin="round"/><polygon points="862.08,526.7743741577959 856.32,525.4943741577958 849.28,518.4543741577959 853.44,513.3343741577959 857.9200000000001,514.4543741577959 860.0,515.7343741577959 862.72,520.374374157796" stroke="#000" fill="#000" fill-rule="evenodd" stroke-linejoin="round"/><polygon points="606.08,526.7743741577959 600.32,525.494374157796 593.28,518.4543741577959 597.44,513.334374157796 601.9200000000001,514.4543741577959 604.0,515.7343741577959 606.72,520.374374157796" stroke="#000" fill="#000" fill-rule="evenodd" stroke-linejoin="round"/><polygon points="606.0799999999999,305.07187078897965 600.3199999999999,303.7918707889796 593.28,296.75187078897966 597.44,291.63187078897965 601.9200000000001,292.75187078897966 604.0,294.03187078897963 606.72,298.6718707889796" stroke="#000" fill="#000" fill-rule="evenodd" stroke-linejoin="round"/><polygon points="734.0799999999999,526.7743741577959 728.3199999999999,525.494374157796 721.28,518.4543741577959 725.44,513.334374157796 729.9200000000001,514.4543741577959 732.0,515.7343741577959 734.72,520.374374157796" stroke="#000" fill="#000" fill-rule="evenodd" stroke-linejoin="round"/><polygon points="478.08000000000004,526.7743741577959 472.32000000000005,525.494374157796 465.28,518.454374157796 469.44000000000005,513.334374157796 473.9200000000001,514.454374157796 476.0,515.734374157796 478.72,520.374374157796" stroke="#000" fill="#000" fill-rule="evenodd" stroke-linejoin="round"/><polygon points="702.0799999999999,249.6462449467756 696.3199999999999,248.36624494677557 689.28,241.32624494677555 693.44,236.2062449467756 697.9200000000001,237.32624494677555 700.0,238.60624494677558 702.72,243.24624494677556" stroke="#000" fill="#000" fill-rule="evenodd" stroke-linejoin="round"/><polygon points="830.0799999999999,471.3487483155918 824.3199999999999,470.06874831559185 817.28,463.0287483155918 821.44,457.9087483155918 825.9200000000001,459.0287483155918 828.0,460.30874831559186 830.72,464.94874831559184" stroke="#000" fill="#000" fill-rule="evenodd" stroke-linejoin="round"/><polygon points="574.0799999999999,471.3487483155919 568.3199999999999,470.06874831559185 561.28,463.0287483155919 565.44,457.9087483155919 569.9200000000001,459.0287483155919 572.0,460.30874831559186 574.72,464.94874831559184" stroke="#000" fill="#000" fill-rule="evenodd" stroke-linejoin="round"/><polygon points="766.08,360.4974966311837 760.3199999999999,359.2174966311837 753.28,352.1774966311837 757.44,347.0574966311837 761.92,348.1774966311837 764.0,349.4574966311837 766.72,354.09749663118373" stroke="#000" fill="#000" fill-rule="evenodd" stroke-linejoin="round"/><polygon points="894.08,582.1999999999999 888.32,580.92 881.28,573.88 885.44,568.76 889.9200000000001,569.88 892.0,571.16 894.72,575.8" stroke="#000" fill="#000" fill-rule="evenodd" stroke-linejoin="round"/><polygon points="638.08,582.2 632.32,580.92 625.28,573.88 629.44,568.76 633.9200000000001,569.88 636.0,571.16 638.72,575.8" stroke="#000" fill="#000" fill-rule="evenodd" stroke-linejoin="round"/><polygon points="638.08,360.4974966311837 632.3199999999999,359.21749663118374 625.28,352.1774966311837 629.44,347.0574966311837 633.92,348.1774966311837 636.0,349.45749663118374 638.72,354.09749663118373" stroke="#000" fill="#000" fill-rule="evenodd" stroke-linejoin="round"/><polygon points="766.08,582.1999999999999 760.32,580.92 753.28,573.88 757.44,568.76 761.9200000000001,569.88 764.0,571.16 766.72,575.8" stroke="#000" fill="#000" fill-rule="evenodd" stroke-linejoin="round"/><polygon points="510.08000000000004,582.2 504.32000000000005,580.9200000000001 497.28,573.88 501.44000000000005,568.76 505.91999999999996,569.88 508.0,571.1600000000001 510.72,575.8000000000001" stroke="#000" fill="#000" fill-rule="evenodd" stroke-linejoin="round"/><polygon points="638.0799999999999,249.6462449467756 632.3199999999999,248.36624494677557 625.28,241.32624494677555 629.4399999999999,236.2062449467756 633.92,237.32624494677555 636.0,238.60624494677558 638.72,243.24624494677556" stroke="#000" fill="#000" fill-rule="evenodd" stroke-linejoin="round"/><polygon points="766.0799999999999,471.3487483155918 760.3199999999999,470.06874831559185 753.28,463.0287483155918 757.44,457.9087483155919 761.9200000000001,459.0287483155918 764.0,460.30874831559186 766.72,464.94874831559184" stroke="#000" fill="#000" fill-rule="evenodd" stroke-linejoin="round"/><polygon points="510.08,471.3487483155919 504.32,470.06874831559185 497.28,463.0287483155919 501.44,457.9087483155919 505.92,459.0287483155919 508.0,460.30874831559186 510.72,464.94874831559184" stroke="#000" fill="#000" fill-rule="evenodd" stroke-linejoin="round"/><polygon points="702.0799999999999,360.4974966311837 696.3199999999999,359.21749663118374 689.28,352.1774966311837 693.44,347.0574966311837 697.9200000000001,348.1774966311837 700.0,349.45749663118374 702.72,354.09749663118373" stroke="#000" fill="#000" fill-rule="evenodd" stroke-linejoin="round"/><polygon points="830.08,582.1999999999999 824.32,580.92 817.28,573.88 821.44,568.76 825.9200000000001,569.88 828.0,571.16 830.72,575.8" stroke="#000" fill="#000" fill-rule="evenodd" stroke-linejoin="round"/><polygon points="574.08,582.2 568.32,580.92 561.28,573.88 565.44,568.76 569.9200000000001,569.88 572.0,571.16 574.72,575.8" stroke="#000" fill="#000" fill-rule="evenodd" stroke-linejoin="round"/><polygon points="574.0799999999999,360.4974966311837 568.3199999999999,359.21749663118374 561.28,352.1774966311837 565.44,347.0574966311837 569.9200000000001,348.1774966311837 572.0,349.45749663118374 574.72,354.09749663118373" stroke="#000" fill="#000" fill-rule="evenodd" stroke-linejoin="round"/><polygon points="702.08,582.2 696.32,580.92 689.28,573.88 693.44,568.76 697.9200000000001,569.88 700.0,571.16 702.72,575.8" stroke="#000" fill="#000" fill-rule="evenodd" stroke-linejoin="round"/><polygon points="446.08000000000004,582.2 440.32000000000005,580.9200000000001 433.28,573.88 437.44000000000005,568.76 441.9200000000001,569.88 444.0,571.1600000000001 446.72,575.8000000000001" stroke="#000" fill="#000" fill-rule="evenodd" stroke-linejoin="round"/><polygon points="638.0799999999999,194.22061910457148 632.3199999999999,192.9406191045715 625.28,185.9006191045715 629.4399999999999,180.78061910457154 633.92,181.9006191045715 636.0,183.18061910457152 638.72,187.8206191045715" stroke="#000" fill="#000" fill-rule="evenodd" stroke-linejoin="round"/><polygon points="766.0799999999999,415.92312247338776 760.3199999999999,414.6431224733878 753.28,407.60312247338777 757.44,402.48312247338777 761.9200000000001,403.60312247338777 764.0,404.8831224733878 766.72,409.5231224733878" stroke="#000" fill="#000" fill-rule="evenodd" stroke-linejoin="round"/><polygon points="510.08,415.9231224733878 504.32,414.6431224733878 497.28,407.60312247338777 501.44,402.4831224733878 505.92,403.60312247338777 508.0,404.8831224733878 510.72,409.5231224733878" stroke="#000" fill="#000" fill-rule="evenodd" stroke-linejoin="round"/><polygon points="702.0799999999999,305.07187078897965 696.3199999999999,303.7918707889796 689.28,296.75187078897966 693.44,291.63187078897965 697.9200000000001,292.75187078897966 700.0,294.03187078897963 702.72,298.6718707889796" stroke="#000" fill="#000" fill-rule="evenodd" stroke-linejoin="round"/><polygon points="830.08,526.7743741577959 824.32,525.4943741577958 817.28,518.4543741577959 821.44,513.3343741577959 825.9200000000001,514.4543741577959 828.0,515.7343741577959 830.72,520.374374157796" stroke="#000" fill="#000" fill-rule="evenodd" stroke-linejoin="round"/><polygon points="574.0799999999999,526.7743741577959 568.3199999999999,525.494374157796 561.28,518.4543741577959 565.44,513.334374157796 569.9200000000001,514.4543741577959 572.0,515.7343741577959 574.72,520.374374157796" stroke="#000" fill="#000" fill-rule="evenodd" stroke-linejoin="round"/><polygon points="574.0799999999999,305.07187078897965 568.3199999999999,303.7918707889796 561.28,296.75187078897966 565.44,291.63187078897965 569.9200000000001,292.75187078897966 572.0,294.03187078897963 574.72,298.6718707889796" stroke="#000" fill="#000" fill-rule="evenodd" stroke-linejoin="round"/><polygon points="702.0799999999999,526.7743741577959 696.3199999999999,525.494374157796 689.28,518.4543741577959 693.44,513.334374157796 697.9200000000001,514.4543741577959 700.0,515.7343741577959 702.72,520.374374157796" stroke="#000" fill="#000" fill-rule="evenodd" stroke-linejoin="round"/><polygon points="446.08000000000004,526.7743741577959 440.32000000000005,525.494374157796 433.28,518.454374157796 437.44000000000005,513.334374157796 441.9200000000001,514.454374157796 444.0,515.734374157796 446.72,520.374374157796" stroke="#000" fill="#000" fill-rule="evenodd" stroke-linejoin="round"/><polygon points="670.0799999999999,249.6462449467756 664.3199999999999,248.36624494677557 657.28,241.32624494677555 661.44,236.2062449467756 665.9200000000001,237.32624494677555 668.0,238.60624494677558 670.72,243.24624494677556" stroke="#000" fill="#000" fill-rule="evenodd" stroke-linejoin="round"/><polygon points="798.0799999999999,471.3487483155918 792.3199999999999,470.06874831559185 785.28,463.0287483155918 789.44,457.9087483155919 793.9200000000001,459.0287483155918 796.0,460.30874831559186 798.72,464.94874831559184" stroke="#000" fill="#000" fill-rule="evenodd" stroke-linejoin="round"/><polygon points="542.0799999999999,471.3487483155919 536.3199999999999,470.06874831559185 529.28,463.0287483155919 533.44,457.9087483155919 537.9200000000001,459.0287483155919 540.0,460.30874831559186 542.72,464.94874831559184" stroke="#000" fill="#000" fill-rule="evenodd" stroke-linejoin="round"/><polygon points="734.0799999999999,360.4974966311837 728.3199999999999,359.21749663118374 721.28,352.1774966311837 725.44,347.0574966311837 729.9200000000001,348.1774966311837 732.0,349.45749663118374 734.72,354.09749663118373" stroke="#000" fill="#000" fill-rule="evenodd" stroke-linejoin="round"/><polygon points="862.08,582.1999999999999 856.32,580.92 849.28,573.88 853.44,568.76 857.9200000000001,569.88 860.0,571.16 862.72,575.8" stroke="#000" fill="#000" fill-rule="evenodd" stroke-linejoin="round"/><polygon points="606.08,582.2 600.32,580.92 593.28,573.88 597.44,568.76 601.9200000000001,569.88 604.0,571.16 606.72,575.8" stroke="#000" fill="#000" fill-rule="evenodd" stroke-linejoin="round"/><polygon points="606.0799999999999,360.4974966311837 600.3199999999999,359.21749663118374 593.28,352.1774966311837 597.44,347.0574966311837 601.9200000000001,348.1774966311837 604.0,349.45749663118374 606.72,354.09749663118373" stroke="#000" fill="#000" fill-rule="evenodd" stroke-linejoin="round"/><polygon points="734.08,582.2 728.32,580.92 721.28,573.88 725.44,568.76 729.9200000000001,569.88 732.0,571.16 734.72,575.8" stroke="#000" fill="#000" fill-rule="evenodd" stroke-linejoin="round"/><polygon points="478.08000000000004,582.2 472.32000000000005,580.9200000000001 465.28,573.88 469.44000000000005,568.76 473.9200000000001,569.88 476.0,571.1600000000001 478.72,575.8000000000001" stroke="#000" fill="#000" fill-rule="evenodd" stroke-linejoin="round"/><polygon points="606.0799999999999,249.6462449467756 600.3199999999999,248.36624494677557 593.28,241.32624494677555 597.44,236.2062449467756 601.9200000000001,237.32624494677555 604.0,238.60624494677558 606.72,243.24624494677556" stroke="#000" fill="#000" fill-rule="evenodd" stroke-linejoin="round"/><polygon points="734.0799999999999,471.3487483155918 728.3199999999999,470.06874831559185 721.28,463.0287483155918 725.44,457.9087483155919 729.9200000000001,459.0287483155918 732.0,460.30874831559186 734.72,464.94874831559184" stroke="#000" fill="#000" fill-rule="evenodd" stroke-linejoin="round"/><polygon points="478.08,471.3487483155919 472.32,470.06874831559185 465.28,463.0287483155919 469.44,457.9087483155919 473.92,459.0287483155919 476.0,460.30874831559186 478.72,464.94874831559184" stroke="#000" fill="#000" fill-rule="evenodd" stroke-linejoin="round"/><polygon points="670.0799999999999,360.4974966311837 664.3199999999999,359.21749663118374 657.28,352.1774966311837 661.44,347.0574966311837 665.9200000000001,348.1774966311837 668.0,349.45749663118374 670.72,354.09749663118373" stroke="#000" fill="#000" fill-rule="evenodd" stroke-linejoin="round"/><polygon points="798.08,582.1999999999999 792.32,580.92 785.28,573.88 789.44,568.76 793.9200000000001,569.88 796.0,571.16 798.72,575.8" stroke="#000" fill="#000" fill-rule="evenodd" stroke-linejoin="round"/><polygon points="542.08,582.2 536.32,580.92 529.28,573.88 533.44,568.76 537.9200000000001,569.88 540.0,571.16 542.72,575.8" stroke="#000" fill="#000" fill-rule="evenodd" stroke-linejoin="round"/><polygon points="542.0799999999999,360.4974966311837 536.3199999999999,359.21749663118374 529.28,352.1774966311837 533.44,347.0574966311837 537.9200000000001,348.1774966311837 540.0,349.45749663118374 542.72,354.09749663118373" stroke="#000" fill="#000" fill-rule="evenodd" stroke-linejoin="round"/><polygon points="670.08,582.2 664.32,580.92 657.28,573.88 661.44,568.76 665.9200000000001,569.88 668.0,571.16 670.72,575.8" stroke="#000" fill="#000" fill-rule="evenodd" stroke-linejoin="round"/><polygon points="414.08000000000004,582.2 408.32000000000005,580.9200000000001 401.28,573.88 405.44000000000005,568.76 409.9200000000001,569.88 412.0,571.1600000000001 414.72,575.8000000000001" stroke="#000" fill="#000" fill-rule="evenodd" stroke-linejoin="round"/><polygon points="638.0799999999999,166.50780618346948 632.3199999999999,165.2278061834695 625.28,158.1878061834695 629.4399999999999,153.0678061834695 633.92,154.1878061834695 636.0,155.46780618346946 638.72,160.1078061834695" stroke="#000" fill="#000" fill-rule="evenodd" stroke-linejoin="round"/><polygon points="766.0799999999999,388.21030955228576 760.3199999999999,386.93030955228573 753.28,379.89030955228577 757.44,374.77030955228577 761.9200000000001,375.89030955228577 764.0,377.17030955228574 766.72,381.81030955228573" stroke="#000" fill="#000" fill-rule="evenodd" stroke-linejoin="round"/><polygon points="510.08,388.21030955228576 504.32,386.9303095522858 497.28,379.89030955228577 501.44,374.77030955228577 505.92,375.89030955228577 508.0,377.17030955228574 510.72,381.8103095522858" stroke="#000" fill="#000" fill-rule="evenodd" stroke-linejoin="round"/><polygon points="702.0799999999999,277.3590578678776 696.3199999999999,276.0790578678776 689.28,269.0390578678776 693.44,263.9190578678776 697.9200000000001,265.0390578678776 700.0,266.31905786787763 702.72,270.9590578678776" stroke="#000" fill="#000" fill-rule="evenodd" stroke-linejoin="round"/><polygon points="830.08,499.0615612366938 824.32,497.78156123669385 817.28,490.7415612366939 821.44,485.6215612366939 825.9200000000001,486.7415612366939 828.0,488.02156123669386 830.72,492.66156123669384" stroke="#000" fill="#000" fill-rule="evenodd" stroke-linejoin="round"/><polygon points="574.0799999999999,499.0615612366939 568.3199999999999,497.7815612366939 561.28,490.7415612366939 565.44,485.6215612366939 569.9200000000001,486.7415612366939 572.0,488.0215612366939 574.72,492.6615612366939" stroke="#000" fill="#000" fill-rule="evenodd" stroke-linejoin="round"/><polygon points="574.0799999999999,277.3590578678776 568.3199999999999,276.0790578678776 561.28,269.0390578678776 565.44,263.9190578678776 569.9200000000001,265.0390578678776 572.0,266.31905786787763 574.72,270.9590578678776" stroke="#000" fill="#000" fill-rule="evenodd" stroke-linejoin="round"/><polygon points="702.0799999999999,499.0615612366939 696.3199999999999,497.7815612366939 689.28,490.7415612366939 693.44,485.6215612366939 697.9200000000001,486.7415612366939 700.0,488.02156123669386 702.72,492.6615612366939" stroke="#000" fill="#000" fill-rule="evenodd" stroke-linejoin="round"/><polygon points="446.08000000000004,499.06156123669393 440.32000000000005,497.78156123669396 433.28,490.7415612366939 437.44000000000005,485.62156123669394 441.9200000000001,486.74156123669394 444.0,488.0215612366939 446.72,492.66156123669396" stroke="#000" fill="#000" fill-rule="evenodd" stroke-linejoin="round"/><polygon points="670.0799999999999,221.93343202567354 664.3199999999999,220.6534320256735 657.28,213.61343202567355 661.44,208.49343202567354 665.9200000000001,209.61343202567355 668.0,210.89343202567352 670.72,215.5334320256735" stroke="#000" fill="#000" fill-rule="evenodd" stroke-linejoin="round"/><polygon points="798.0799999999999,443.6359353944898 792.3199999999999,442.3559353944898 785.28,435.3159353944898 789.44,430.1959353944898 793.9200000000001,431.3159353944898 796.0,432.5959353944898 798.72,437.2359353944898" stroke="#000" fill="#000" fill-rule="evenodd" stroke-linejoin="round"/><polygon points="542.0799999999999,443.6359353944898 536.3199999999999,442.35593539448985 529.28,435.3159353944898 533.44,430.1959353944898 537.9200000000001,431.3159353944898 540.0,432.59593539448986 542.72,437.23593539448984" stroke="#000" fill="#000" fill-rule="evenodd" stroke-linejoin="round"/><polygon points="734.0799999999999,332.7846837100817 728.3199999999999,331.5046837100817 721.28,324.46468371008166 725.44,319.34468371008165 729.9200000000001,320.46468371008166 732.0,321.7446837100817 734.72,326.3846837100817" stroke="#000" fill="#000" fill-rule="evenodd" stroke-linejoin="round"/><polygon points="862.08,554.4871870788979 856.32,553.207187078898 849.28,546.167187078898 853.44,541.0471870788979 857.9200000000001,542.167187078898 860.0,543.447187078898 862.72,548.087187078898" stroke="#000" fill="#000" fill-rule="evenodd" stroke-linejoin="round"/><polygon points="606.08,554.4871870788979 600.32,553.207187078898 593.28,546.167187078898 597.44,541.047187078898 601.9200000000001,542.167187078898 604.0,543.447187078898 606.72,548.087187078898" stroke="#000" fill="#000" fill-rule="evenodd" stroke-linejoin="round"/><polygon points="606.0799999999999,332.7846837100817 600.3199999999999,331.5046837100817 593.28,324.46468371008166 597.44,319.34468371008165 601.9200000000001,320.46468371008166 604.0,321.7446837100817 606.72,326.3846837100817" stroke="#000" fill="#000" fill-rule="evenodd" stroke-linejoin="round"/><polygon points="734.08,554.4871870788979 728.32,553.207187078898 721.28,546.167187078898 725.44,541.047187078898 729.9200000000001,542.167187078898 732.0,543.447187078898 734.72,548.087187078898" stroke="#000" fill="#000" fill-rule="evenodd" stroke-linejoin="round"/><polygon points="478.08000000000004,554.4871870788979 472.32000000000005,553.207187078898 465.28,546.167187078898 469.44000000000005,541.047187078898 473.9200000000001,542.167187078898 476.0,543.447187078898 478.72,548.087187078898" stroke="#000" fill="#000" fill-rule="evenodd" stroke-linejoin="round"/><polygon points="606.0799999999999,221.93343202567354 600.3199999999999,220.6534320256735 593.28,213.61343202567355 597.4399999999999,208.49343202567354 601.92,209.61343202567355 604.0,210.89343202567352 606.72,215.5334320256735" stroke="#000" fill="#000" fill-rule="evenodd" stroke-linejoin="round"/><polygon points="734.0799999999999,443.6359353944898 728.3199999999999,442.3559353944898 721.28,435.3159353944898 725.44,430.1959353944898 729.9200000000001,431.3159353944898 732.0,432.5959353944898 734.72,437.2359353944898" stroke="#000" fill="#000" fill-rule="evenodd" stroke-linejoin="round"/><polygon points="478.08,443.6359353944898 472.32,442.35593539448985 465.28,435.3159353944899 469.44,430.1959353944898 473.92,431.3159353944898 476.0,432.59593539448986 478.72,437.23593539448984" stroke="#000" fill="#000" fill-rule="evenodd" stroke-linejoin="round"/><polygon points="670.0799999999999,332.7846837100817 664.3199999999999,331.5046837100817 657.28,324.46468371008166 661.44,319.34468371008165 665.9200000000001,320.46468371008166 668.0,321.7446837100817 670.72,326.3846837100817" stroke="#000" fill="#000" fill-rule="evenodd" stroke-linejoin="round"/><polygon points="798.08,554.4871870788979 792.32,553.207187078898 785.28,546.167187078898 789.44,541.0471870788979 793.9200000000001,542.167187078898 796.0,543.447187078898 798.72,548.087187078898" stroke="#000" fill="#000" fill-rule="evenodd" stroke-linejoin="round"/><polygon points="542.08,554.4871870788979 536.32,553.207187078898 529.28,546.167187078898 533.44,541.047187078898 537.9200000000001,542.167187078898 540.0,543.447187078898 542.72,548.087187078898" stroke="#000" fill="#000" fill-rule="evenodd" stroke-linejoin="round"/><polygon points="542.0799999999999,332.7846837100817 536.3199999999999,331.5046837100817 529.28,324.46468371008166 533.44,319.34468371008165 537.9200000000001,320.46468371008166 540.0,321.7446837100817 542.72,326.3846837100817" stroke="#000" fill="#000" fill-rule="evenodd" stroke-linejoin="round"/><polygon points="670.0799999999999,554.4871870788979 664.3199999999999,553.207187078898 657.28,546.167187078898 661.44,541.047187078898 665.9200000000001,542.167187078898 668.0,543.447187078898 670.72,548.087187078898" stroke="#000" fill="#000" fill-rule="evenodd" stroke-linejoin="round"/><polygon points="414.08000000000004,554.4871870788979 408.32000000000005,553.207187078898 401.28,546.167187078898 405.44000000000005,541.047187078898 409.9200000000001,542.167187078898 412.0,543.447187078898 414.72,548.087187078898" stroke="#000" fill="#000" fill-rule="evenodd" stroke-linejoin="round"/><polygon points="654.0799999999999,194.22061910457148 648.3199999999999,192.9406191045715 641.28,185.9006191045715 645.44,180.78061910457154 649.9200000000001,181.9006191045715 652.0,183.18061910457152 654.72,187.8206191045715" stroke="#000" fill="#000" fill-rule="evenodd" stroke-linejoin="round"/><polygon points="782.0799999999999,415.92312247338776 776.3199999999999,414.6431224733878 769.28,407.60312247338777 773.44,402.48312247338777 777.9200000000001,403.60312247338777 780.0,404.8831224733878 782.72,409.5231224733878" stroke="#000" fill="#000" fill-rule="evenodd" stroke-linejoin="round"/><polygon points="526.0799999999999,415.9231224733878 520.3199999999999,414.6431224733878 513.28,407.60312247338777 517.44,402.4831224733878 521.9200000000001,403.60312247338777 524.0,404.8831224733878 526.72,409.5231224733878" stroke="#000" fill="#000" fill-rule="evenodd" stroke-linejoin="round"/><polygon points="718.0799999999999,305.07187078897965 712.3199999999999,303.7918707889796 705.28,296.75187078897966 709.44,291.63187078897965 713.9200000000001,292.75187078897966 716.0,294.03187078897963 718.72,298.6718707889796" stroke="#000" fill="#000" fill-rule="evenodd" stroke-linejoin="round"/><polygon points="846.08,526.7743741577959 840.32,525.4943741577958 833.28,518.4543741577959 837.44,513.3343741577959 841.9200000000001,514.4543741577959 844.0,515.7343741577959 846.72,520.374374157796" stroke="#000" fill="#000" fill-rule="evenodd" stroke-linejoin="round"/><polygon points="590.08,526.7743741577959 584.32,525.494374157796 577.28,518.4543741577959 581.44,513.334374157796 585.9200000000001,514.4543741577959 588.0,515.7343741577959 590.72,520.374374157796" stroke="#000" fill="#000" fill-rule="evenodd" stroke-linejoin="round"/><polygon points="590.0799999999999,305.07187078897965 584.3199999999999,303.7918707889796 577.28,296.75187078897966 581.44,291.63187078897965 585.9200000000001,292.75187078897966 588.0,294.03187078897963 590.72,298.6718707889796" stroke="#000" fill="#000" fill-rule="evenodd" stroke-linejoin="round"/><polygon points="718.0799999999999,526.7743741577959 712.3199999999999,525.494374157796 705.28,518.4543741577959 709.44,513.334374157796 713.9200000000001,514.4543741577959 716.0,515.7343741577959 718.72,520.374374157796" stroke="#000" fill="#000" fill-rule="evenodd" stroke-linejoin="round"/><polygon points="462.08000000000004,526.7743741577959 456.32000000000005,525.494374157796 449.28,518.454374157796 453.44000000000005,513.334374157796 457.9200000000001,514.454374157796 460.0,515.734374157796 462.72,520.374374157796" stroke="#000" fill="#000" fill-rule="evenodd" stroke-linejoin="round"/><polygon points="686.0799999999999,249.6462449467756 680.3199999999999,248.36624494677557 673.28,241.32624494677555 677.44,236.2062449467756 681.9200000000001,237.32624494677555 684.0,238.60624494677558 686.72,243.24624494677556" stroke="#000" fill="#000" fill-rule="evenodd" stroke-linejoin="round"/><polygon points="814.0799999999999,471.3487483155918 808.3199999999999,470.06874831559185 801.28,463.0287483155918 805.44,457.9087483155919 809.9200000000001,459.0287483155918 812.0,460.30874831559186 814.72,464.94874831559184" stroke="#000" fill="#000" fill-rule="evenodd" stroke-linejoin="round"/><polygon points="558.0799999999999,471.3487483155919 552.3199999999999,470.06874831559185 545.28,463.0287483155919 549.44,457.9087483155919 553.9200000000001,459.0287483155919 556.0,460.30874831559186 558.72,464.94874831559184" stroke="#000" fill="#000" fill-rule="evenodd" stroke-linejoin="round"/><polygon points="750.0799999999999,360.4974966311837 744.3199999999999,359.21749663118374 737.28,352.1774966311837 741.44,347.0574966311837 745.9200000000001,348.1774966311837 748.0,349.45749663118374 750.72,354.09749663118373" stroke="#000" fill="#000" fill-rule="evenodd" stroke-linejoin="round"/><polygon points="878.08,582.1999999999999 872.32,580.92 865.28,573.88 869.44,568.76 873.9200000000001,569.88 876.0,571.16 878.72,575.8" stroke="#000" fill="#000" fill-rule="evenodd" stroke-linejoin="round"/><polygon points="622.08,582.2 616.32,580.92 609.28,573.88 613.44,568.76 617.9200000000001,569.88 620.0,571.16 622.72,575.8" stroke="#000" fill="#000" fill-rule="evenodd" stroke-linejoin="round"/><polygon points="622.0799999999999,360.4974966311837 616.3199999999999,359.21749663118374 609.28,352.1774966311837 613.44,347.0574966311837 617.9200000000001,348.1774966311837 620.0,349.45749663118374 622.72,354.09749663118373" stroke="#000" fill="#000" fill-rule="evenodd" stroke-linejoin="round"/><polygon points="750.08,582.2 744.32,580.92 737.28,573.88 741.44,568.76 745.9200000000001,569.88 748.0,571.16 750.72,575.8" stroke="#000" fill="#000" fill-rule="evenodd" stroke-linejoin="round"/><polygon points="494.08000000000004,582.2 488.32000000000005,580.9200000000001 481.28,573.88 485.44000000000005,568.76 489.9200000000001,569.88 492.0,571.1600000000001 494.72,575.8000000000001" stroke="#000" fill="#000" fill-rule="evenodd" stroke-linejoin="round"/><polygon points="622.0799999999999,249.6462449467756 616.3199999999999,248.36624494677557 609.28,241.32624494677555 613.44,236.2062449467756 617.9200000000001,237.32624494677555 620.0,238.60624494677558 622.72,243.24624494677556" stroke="#000" fill="#000" fill-rule="evenodd" stroke-linejoin="round"/><polygon points="750.0799999999999,471.3487483155918 744.3199999999999,470.06874831559185 737.28,463.0287483155918 741.44,457.9087483155919 745.9200000000001,459.0287483155918 748.0,460.30874831559186 750.72,464.94874831559184" stroke="#000" fill="#000" fill-rule="evenodd" stroke-linejoin="round"/><polygon points="494.08,471.3487483155919 488.32,470.06874831559185 481.28,463.0287483155919 485.44,457.9087483155919 489.92,459.0287483155919 492.0,460.30874831559186 494.72,464.94874831559184" stroke="#000" fill="#000" fill-rule="evenodd" stroke-linejoin="round"/><polygon points="686.0799999999999,360.4974966311837 680.3199999999999,359.21749663118374 673.28,352.1774966311837 677.44,347.0574966311837 681.9200000000001,348.1774966311837 684.0,349.45749663118374 686.72,354.09749663118373" stroke="#000" fill="#000" fill-rule="evenodd" stroke-linejoin="round"/><polygon points="814.08,582.1999999999999 808.32,580.92 801.28,573.88 805.44,568.76 809.9200000000001,569.88 812.0,571.16 814.72,575.8" stroke="#000" fill="#000" fill-rule="evenodd" stroke-linejoin="round"/><polygon points="558.08,582.2 552.32,580.92 545.28,573.88 549.44,568.76 553.9200000000001,569.88 556.0,571.16 558.72,575.8" stroke="#000" fill="#000" fill-rule="evenodd" stroke-linejoin="round"/><polygon points="558.0799999999999,360.4974966311837 552.3199999999999,359.21749663118374 545.28,352.1774966311837 549.44,347.0574966311837 553.9200000000001,348.1774966311837 556.0,349.45749663118374 558.72,354.09749663118373" stroke="#000" fill="#000" fill-rule="evenodd" stroke-linejoin="round"/><polygon points="686.08,582.2 680.32,580.92 673.28,573.88 677.44,568.76 681.9200000000001,569.88 684.0,571.16 686.72,575.8" stroke="#000" fill="#000" fill-rule="evenodd" stroke-linejoin="round"/><polygon points="430.08000000000004,582.2 424.32000000000005,580.9200000000001 417.28,573.88 421.44000000000005,568.76 425.9200000000001,569.88 428.0,571.1600000000001 430.72,575.8000000000001" stroke="#000" fill="#000" fill-rule="evenodd" stroke-linejoin="round"/><polygon points="622.0799999999999,194.22061910457148 616.3199999999999,192.9406191045715 609.28,185.9006191045715 613.4399999999999,180.78061910457154 617.92,181.9006191045715 620.0,183.18061910457152 622.72,187.8206191045715" stroke="#000" fill="#000" fill-rule="evenodd" stroke-linejoin="round"/><polygon points="750.0799999999999,415.92312247338776 744.3199999999999,414.6431224733878 737.28,407.60312247338777 741.44,402.48312247338777 745.9200000000001,403.60312247338777 748.0,404.8831224733878 750.72,409.5231224733878" stroke="#000" fill="#000" fill-rule="evenodd" stroke-linejoin="round"/><polygon points="494.08,415.9231224733878 488.32,414.6431224733878 481.28,407.60312247338777 485.44,402.4831224733878 489.92,403.60312247338777 492.0,404.8831224733878 494.72,409.5231224733878" stroke="#000" fill="#000" fill-rule="evenodd" stroke-linejoin="round"/><polygon points="686.0799999999999,305.07187078897965 680.3199999999999,303.7918707889796 673.28,296.75187078897966 677.44,291.63187078897965 681.9200000000001,292.75187078897966 684.0,294.03187078897963 686.72,298.6718707889796" stroke="#000" fill="#000" fill-rule="evenodd" stroke-linejoin="round"/><polygon points="814.08,526.7743741577959 808.32,525.4943741577958 801.28,518.4543741577959 805.44,513.3343741577959 809.9200000000001,514.4543741577959 812.0,515.7343741577959 814.72,520.374374157796" stroke="#000" fill="#000" fill-rule="evenodd" stroke-linejoin="round"/><polygon points="558.0799999999999,526.7743741577959 552.3199999999999,525.494374157796 545.28,518.4543741577959 549.44,513.334374157796 553.9200000000001,514.4543741577959 556.0,515.7343741577959 558.72,520.374374157796" stroke="#000" fill="#000" fill-rule="evenodd" stroke-linejoin="round"/><polygon points="558.0799999999999,305.07187078897965 552.3199999999999,303.7918707889796 545.28,296.75187078897966 549.44,291.63187078897965 553.9200000000001,292.75187078897966 556.0,294.03187078897963 558.72,298.6718707889796" stroke="#000" fill="#000" fill-rule="evenodd" stroke-linejoin="round"/><polygon points="686.0799999999999,526.7743741577959 680.3199999999999,525.494374157796 673.28,518.4543741577959 677.44,513.334374157796 681.9200000000001,514.4543741577959 684.0,515.7343741577959 686.72,520.374374157796" stroke="#000" fill="#000" fill-rule="evenodd" stroke-linejoin="round"/><polygon points="430.08000000000004,526.7743741577959 424.32000000000005,525.494374157796 417.28,518.454374157796 421.44000000000005,513.334374157796 425.9200000000001,514.454374157796 428.0,515.734374157796 430.72,520.374374157796" stroke="#000" fill="#000" fill-rule="evenodd" stroke-linejoin="round"/><polygon points="654.0799999999999,249.6462449467756 648.3199999999999,248.36624494677557 641.28,241.32624494677555 645.44,236.2062449467756 649.9200000000001,237.32624494677555 652.0,238.60624494677558 654.72,243.24624494677556" stroke="#000" fill="#000" fill-rule="evenodd" stroke-linejoin="round"/><polygon points="782.0799999999999,471.3487483155918 776.3199999999999,470.06874831559185 769.28,463.0287483155918 773.44,457.9087483155919 777.9200000000001,459.0287483155918 780.0,460.30874831559186 782.72,464.94874831559184" stroke="#000" fill="#000" fill-rule="evenodd" stroke-linejoin="round"/><polygon points="526.0799999999999,471.3487483155919 520.3199999999999,470.06874831559185 513.28,463.0287483155919 517.44,457.9087483155919 521.9200000000001,459.0287483155919 524.0,460.30874831559186 526.72,464.94874831559184" stroke="#000" fill="#000" fill-rule="evenodd" stroke-linejoin="round"/><polygon points="718.0799999999999,360.4974966311837 712.3199999999999,359.21749663118374 705.28,352.1774966311837 709.44,347.0574966311837 713.9200000000001,348.1774966311837 716.0,349.45749663118374 718.72,354.09749663118373" stroke="#000" fill="#000" fill-rule="evenodd" stroke-linejoin="round"/><polygon points="846.08,582.1999999999999 840.32,580.92 833.28,573.88 837.44,568.76 841.9200000000001,569.88 844.0,571.16 846.72,575.8" stroke="#000" fill="#000" fill-rule="evenodd" stroke-linejoin="round"/><polygon points="590.08,582.2 584.32,580.92 577.28,573.88 581.44,568.76 585.9200000000001,569.88 588.0,571.16 590.72,575.8" stroke="#000" fill="#000" fill-rule="evenodd" stroke-linejoin="round"/><polygon points="590.0799999999999,360.4974966311837 584.3199999999999,359.21749663118374 577.28,352.1774966311837 581.44,347.0574966311837 585.9200000000001,348.1774966311837 588.0,349.45749663118374 590.72,354.09749663118373" stroke="#000" fill="#000" fill-rule="evenodd" stroke-linejoin="round"/><polygon points="718.08,582.2 712.32,580.92 705.28,573.88 709.44,568.76 713.9200000000001,569.88 716.0,571.16 718.72,575.8" stroke="#000" fill="#000" fill-rule="evenodd" stroke-linejoin="round"/><polygon points="462.08000000000004,582.2 456.32000000000005,580.9200000000001 449.28,573.88 453.44000000000005,568.76 457.9200000000001,569.88 460.0,571.1600000000001 462.72,575.8000000000001" stroke="#000" fill="#000" fill-rule="evenodd" stroke-linejoin="round"/><polygon points="590.0799999999999,249.6462449467756 584.3199999999999,248.36624494677557 577.28,241.32624494677555 581.44,236.2062449467756 585.9200000000001,237.32624494677555 588.0,238.60624494677558 590.72,243.24624494677556" stroke="#000" fill="#000" fill-rule="evenodd" stroke-linejoin="round"/><polygon points="718.0799999999999,471.3487483155918 712.3199999999999,470.06874831559185 705.28,463.0287483155918 709.44,457.9087483155919 713.9200000000001,459.0287483155918 716.0,460.30874831559186 718.72,464.94874831559184" stroke="#000" fill="#000" fill-rule="evenodd" stroke-linejoin="round"/><polygon points="462.08,471.3487483155919 456.32,470.0687483155919 449.28,463.0287483155919 453.44,457.9087483155919 457.92,459.0287483155919 460.0,460.30874831559186 462.72,464.9487483155919" stroke="#000" fill="#000" fill-rule="evenodd" stroke-linejoin="round"/><polygon points="654.0799999999999,360.4974966311837 648.3199999999999,359.21749663118374 641.28,352.1774966311837 645.44,347.0574966311837 649.9200000000001,348.1774966311837 652.0,349.45749663118374 654.72,354.09749663118373" stroke="#000" fill="#000" fill-rule="evenodd" stroke-linejoin="round"/><polygon points="782.08,582.1999999999999 776.32,580.92 769.28,573.88 773.44,568.76 777.9200000000001,569.88 780.0,571.16 782.72,575.8" stroke="#000" fill="#000" fill-rule="evenodd" stroke-linejoin="round"/><polygon points="526.08,582.2 520.32,580.9200000000001 513.28,573.88 517.44,568.76 521.9200000000001,569.88 524.0,571.16 526.72,575.8" stroke="#000" fill="#000" fill-rule="evenodd" stroke-linejoin="round"/><polygon points="526.0799999999999,360.4974966311837 520.3199999999999,359.21749663118374 513.28,352.17749663118377 517.44,347.0574966311837 521.9200000000001,348.1774966311837 524.0,349.45749663118374 526.72,354.09749663118373" stroke="#000" fill="#000" fill-rule="evenodd" stroke-linejoin="round"/><polygon points="654.0799999999999,582.2 648.3199999999999,580.92 641.28,573.88 645.44,568.76 649.9200000000001,569.88 652.0,571.16 654.72,575.8" stroke="#000" fill="#000" fill-rule="evenodd" stroke-linejoin="round"/><polygon points="398.08000000000004,582.2 392.32000000000005,580.9200000000001 385.28,573.88 389.44000000000005,568.76 393.9200000000001,569.88 396.0,571.1600000000001 398.72,575.8000000000001" stroke="#000" fill="#000" fill-rule="evenodd" stroke-linejoin="round"/></svg>